<svg width="215" height="80" viewBox="0 0 215 80" fill="none" xmlns="http://www.w3.org/2000/svg">
<g clip-path="url(#clip0)">
<path d="M45.8935 31.4513L44.3722 29.3553C41.1097 28.4181 34.3313 26.4925 33.3171 26.288C32.0493 26.0324 19.3715 24.8054 17.8502 25.0099C16.3289 25.2144 12.1198 28.0773 11.8663 28.8441C11.6127 29.6109 12.9819 35.0299 13.6412 35.5411C14.1686 35.9501 20.1829 38.1995 23.1242 39.273L34.5849 41.8291L42.3944 40.5511L45.0821 36.8703L46.5527 34.1097L45.8935 31.4513Z" fill="white"/>
<path d="M41.938 53.7406L40.011 47.8104L10.5985 41.8291L12.7791 51.9513L33.8242 56.2967L41.938 53.7406Z" fill="white"/>
<path d="M9.48321 43.9241C9.64549 43.4742 10.1019 43.0346 10.7003 42.7278C11.39 42.37 11.6131 42.3904 13.9965 43.0141C15.7308 43.464 16.8059 43.7707 20.1326 44.7523C21.0251 45.0079 22.7087 45.4271 23.8852 45.6725C26.7918 46.2953 26.8159 46.2973 27.7854 46.3787L27.7897 46.3791C28.2663 46.4098 29.8485 46.4404 31.1366 46.5836C33.307 46.8187 33.3375 46.8392 34.9906 46.7369L41.8874 45.6123C42.2221 45.4691 42.7089 45.2431 43.0537 45.0999C43.4087 44.967 43.8651 44.6807 44.0679 44.5478C44.6199 44.0152 45.4913 44.3463 45.64 44.5478C45.8124 44.8954 45.4577 45.6623 45.2042 46.0303C44.6362 46.8892 42.5368 47.8094 39.6057 48.4638C37.8105 48.8625 36.6847 48.975 34.0274 49.0056C31.7657 49.0363 30.5385 48.9545 26.4208 48.4638C25.153 48.3104 23.0434 47.9116 21.3496 47.4924C20.5687 47.2982 19.4733 47.0426 18.9155 46.9301C17.7086 46.6847 14.8485 45.7338 13.9965 45.3044C12.9519 44.7727 12.3735 44.8852 12.3735 45.6725C12.3735 46.7256 14.767 48.4956 18.256 50.2644C22.7084 52.524 25.2744 53.1681 28.1446 53.7407L29.666 54.0985H32.9622C36.2787 54.0883 36.3598 54.0065 37.6276 53.7407C39.6561 53.3215 40.0618 53.4442 40.4675 53.025C40.7717 52.708 41.127 52.8909 41.127 52.482C41.1169 51.8276 40.4573 51.0312 39.8082 50.2644C39.0678 49.3851 39.1388 49.0681 40.2139 48.8841C41.1774 48.7205 41.6747 48.7909 42.0702 49.1795C42.8816 49.9667 43.6521 51.7878 43.6623 53.025C43.5575 53.6316 43.0984 55.1742 42.3438 55.8367C41.6237 56.3888 41.4411 56.6024 40.2139 56.8478C38.8853 57.1239 35.3558 57.309 32.2015 57.217C30.1325 57.1557 29.8282 57.2363 28.1446 56.8478C26.3697 56.4388 25.7007 55.7538 22.4349 54.8745C20.5078 54.353 19.9497 54.62 18.4081 53.8941C16.2681 52.8818 14.5746 51.9412 13.9965 51.3891C13.6922 51.0926 13.0124 50.4484 12.7791 50.2644C12.3633 49.9474 10.4566 47.7992 9.83789 46.9301C9.67562 46.6949 9.46263 45.8156 9.28007 45.3044C8.94538 44.374 9.31079 44.3638 9.48321 43.9241Z" fill="white"/>
<path d="M17.9008 20.1022C20.7711 20.3271 22.3431 20.9099 23.976 22.3413C24.9091 23.1491 24.8483 23.1388 25.6901 22.7299C27.181 22.0039 27.3534 21.963 30.1222 21.779C30.7713 21.7381 31.2277 21.779 31.9681 21.9324C33.8546 22.3311 35.1832 22.9957 36.4409 24.1817C37.0291 24.7339 37.1711 24.8054 38.1447 25.1019C40.4065 25.7972 41.6742 26.4311 42.658 27.3718C43.0637 27.7603 43.4694 28.0772 43.5607 28.0772C43.8548 28.0772 45.1125 28.6703 45.7311 29.0997C46.3701 29.5291 46.8569 30.1937 46.8569 30.6334C46.8569 30.756 46.7758 31.0832 46.6845 31.3491C46.5324 31.7887 46.5324 31.891 46.6642 32.4329C46.7352 32.7703 46.8062 33.4451 46.8062 33.9563C46.8062 35.1321 46.5324 35.7558 45.5993 36.7578C45.1023 37.2895 44.9299 37.5553 44.9299 37.7598C44.9299 38.1585 44.6155 38.6289 43.8548 39.3957C43.4999 39.7536 43.2057 40.1012 43.2057 40.1728C43.2057 40.2443 43.4491 40.6738 43.7534 41.1236C44.0577 41.5837 44.3619 42.1563 44.4228 42.4017C44.5952 43.0458 44.7575 43.2605 45.3457 43.5775C45.9644 43.9251 46.2484 44.4057 46.3194 45.2543C46.4411 46.5528 45.4979 47.5241 43.3579 48.3216C42.5059 48.6386 42.4146 48.8533 42.8913 49.4054C43.4086 49.9882 43.9968 51.2867 44.1794 52.2274C44.3315 53.0249 44.3315 53.1476 44.1794 53.894C43.8954 55.3151 43.2767 56.2558 42.2422 56.8693C41.8264 57.1146 39.3415 57.7281 38.7736 57.7281C38.6316 57.7281 38.023 57.9735 37.4247 58.2802C36.1467 58.9448 33.672 59.9468 32.2825 60.3762C30.6091 60.8875 29.8078 60.9488 24.9497 60.9386C20.9841 60.9284 20.3958 60.9079 19.1686 60.7137C16.3085 60.2638 12.8601 58.8426 10.2434 57.0329C6.15612 54.2109 4.64493 52.7488 2.7179 49.7428C1.70368 48.1785 1.25742 47.2072 0.659031 45.3054L0.0809212 43.465L0.0707779 41.9314C0.0504951 40.3261 0.101204 39.958 0.577892 38.455C1.45012 35.6945 2.83961 33.2713 4.14796 32.2181C4.76664 31.7171 4.92891 31.4002 5.0202 30.48C5.12162 29.4371 5.52731 27.6989 5.83157 27.0037C6.55167 25.3575 7.74846 23.9772 9.63491 22.6174C12.4747 20.5827 13.56 20.1329 15.8217 20.0511C16.4099 20.0306 17.343 20.0511 17.9008 20.1022ZM23.976 28.4862C21.765 28.6703 20.8725 28.885 17.9921 29.9279C16.4302 30.5004 15.9332 30.6334 15.4566 30.6334C14.777 30.6334 14.564 30.7254 14.6249 30.9912C14.6452 31.1139 14.8582 31.2468 15.2537 31.3695C16.0955 31.6456 16.2172 31.7376 17.7994 33.2917C19.5033 34.9685 20.4263 35.674 21.7042 36.2875C24.0572 37.4224 26.8666 37.6984 29.0573 36.993C30.2135 36.6249 31.5016 35.8376 31.8261 35.3059C32.1913 34.7231 32.3738 33.7416 32.3941 32.3715L32.4042 31.0935L32.0188 30.7049C31.5523 30.2448 30.3352 29.5189 29.321 29.0895C27.7388 28.4249 26.4913 28.2817 23.976 28.4862ZM36.4814 29.8767C35.4672 30.0506 33.3069 30.7765 33.0432 31.0321C32.8911 31.1855 32.8911 31.2468 33.0229 31.758C33.1041 32.0648 33.1852 32.8418 33.2055 33.4757C33.2156 34.3142 33.2663 34.6618 33.3779 34.764C33.6517 35.0401 35.1528 35.7353 36.3597 36.1341C38.1955 36.7578 39.3111 36.9418 41.1773 36.9214C42.6175 36.9112 42.8203 36.8907 43.5911 36.6147C44.5851 36.2772 45.2545 35.7353 45.6399 34.9685C45.8529 34.5391 45.8934 34.3244 45.8934 33.4962C45.8934 32.6271 45.863 32.4738 45.6196 32.0546C45.3052 31.5127 44.9198 31.165 44.078 30.6743C43.1854 30.1528 42.1712 29.8972 40.0616 29.6723C39.443 29.6007 37.4044 29.7234 36.4814 29.8767ZM32.7795 35.8069C32.455 36.0319 32.5057 36.3079 32.9722 36.7782C33.4996 37.3099 33.743 37.4019 34.1183 37.2077C34.3921 37.0645 34.4733 37.0748 35.5382 37.4735C36.1569 37.6984 37.0088 37.9847 37.4247 38.087C37.8405 38.1994 38.449 38.3528 38.7736 38.4448C40.589 38.9254 43.8143 38.6084 43.8143 37.9438C43.8143 37.7087 43.7027 37.6984 42.8 37.862C40.7006 38.2403 37.1001 37.5246 34.1994 36.1546C33.601 35.8785 33.0939 35.6433 33.0635 35.6433C33.0331 35.6433 32.9012 35.7149 32.7795 35.8069ZM34.4834 38.0358C34.4834 38.1176 34.7268 38.4551 35.0209 38.7822C35.3151 39.1094 35.7715 39.6615 36.0352 39.9989C36.4814 40.592 36.5321 40.6329 37.0291 40.6942C38.1955 40.8476 40.2949 40.4999 41.299 39.9785C41.8872 39.6718 41.4917 39.4366 40.4166 39.4264C39.5748 39.4161 36.2076 38.6084 35.3455 38.1994C34.6457 37.862 34.4834 37.8314 34.4834 38.0358ZM10.6998 42.78C10.1015 43.0867 9.64505 43.5264 9.48278 43.9762C9.31036 44.4159 9.31036 44.4261 9.64506 45.3565C9.82762 45.8678 10.1116 46.4812 10.2739 46.7164C10.8926 47.5855 12.6979 49.6508 13.1137 49.9678C13.347 50.1518 13.7932 50.5403 14.0975 50.8368C14.6756 51.389 16.5215 52.4523 18.6615 53.4645C20.2031 54.1905 20.5074 54.3029 22.4344 54.8244C25.7002 55.7037 26.5217 55.9082 28.2966 56.3171C29.9802 56.7057 30.1831 56.7363 32.2521 56.7977C35.4063 56.8897 38.733 56.7568 40.0616 56.4807C41.2888 56.2353 41.3497 56.2047 42.0698 55.6526C42.4755 55.3458 42.6783 55.08 42.9623 54.4972C43.2869 53.8428 43.3274 53.669 43.3274 53.0044C43.3173 51.7673 42.6682 50.1518 41.8568 49.3645C41.4613 48.976 41.3903 48.9658 40.4268 49.1294C39.3517 49.3134 39.3517 49.3134 40.0921 50.1927C40.7412 50.9595 41.1164 51.7775 41.1266 52.4319C41.1266 52.8408 41.0759 52.9635 40.7716 53.2805C40.3659 53.6997 39.8081 53.894 37.7796 54.3132C36.5118 54.579 36.3293 54.5892 33.0128 54.5994L29.5644 54.6097L27.8707 54.2723C25.0004 53.6997 22.5663 52.759 18.1138 50.4994C14.6249 48.7306 12.1705 46.7471 12.1705 45.694C12.1705 44.9067 12.9514 44.7226 13.9961 45.2543C14.848 45.6837 17.7081 46.6346 18.9151 46.88C19.4729 46.9925 20.5682 47.2481 21.3492 47.4423C23.043 47.8615 25.1525 48.2603 26.4203 48.4137C30.5381 48.9044 31.7653 48.9862 34.027 48.9555C36.6843 48.9249 37.8101 48.8124 39.6052 48.4137C42.5363 47.7593 44.6358 46.8391 45.2037 45.9802C45.4573 45.6122 45.508 44.9782 45.3356 44.6306C45.1835 44.3546 44.6561 44.375 44.1997 44.692C43.9968 44.8249 43.5404 45.06 43.1854 45.193C42.8406 45.3361 42.2726 45.561 41.9379 45.7042C40.305 46.3892 38.6214 46.6857 35.0919 46.9004C33.4388 47.0027 33.1548 46.9925 30.9843 46.7573C29.6963 46.6142 28.2662 46.4608 27.7895 46.4301C26.8159 46.3483 26.7956 46.3483 23.8848 45.7246C22.7083 45.4792 21.0246 45.06 20.1321 44.8044C16.8055 43.8229 15.7304 43.5161 13.9961 43.0663C11.6126 42.4426 11.3895 42.4221 10.6998 42.78ZM13.2861 46.1029C13.2861 46.3176 14.5742 47.5139 15.416 48.0865C15.8318 48.3625 16.5114 48.7715 16.917 48.9862C17.6676 49.3748 17.6676 49.3747 18.6007 49.3134C19.6149 49.2418 20.4973 49.3441 21.7853 49.6508C23.3168 50.0291 24.4933 50.571 27.3838 52.2376C28.7632 53.0249 29.4731 53.2907 30.5989 53.4236C31.8971 53.5668 32.5259 53.3827 33.1446 52.6772C33.9459 51.757 33.5706 50.6119 32.2825 50.0291C31.7754 49.8144 31.39 49.7531 29.5644 49.5997C28.3879 49.4974 27.4041 49.4054 27.3737 49.385C27.3433 49.3645 26.8362 49.3032 26.2378 49.2521C25.6495 49.1907 24.8787 49.0782 24.5237 48.9964C24.1789 48.9146 23.3168 48.7204 22.617 48.5772C21.9172 48.4341 20.7812 48.158 20.0814 47.9638C19.3816 47.7797 18.6108 47.5957 18.3674 47.5548C17.8603 47.4832 14.4525 46.3688 14.0265 46.1336C13.6715 45.9393 13.2861 45.9291 13.2861 46.1029ZM35.2745 49.8451C34.5544 49.886 34.0371 49.9575 33.9661 50.0291C33.8647 50.1314 33.8952 50.2745 34.1081 50.6937C34.4935 51.4708 34.4834 52.1762 34.0676 53.0146C33.8444 53.4543 33.7836 53.6895 33.8546 53.761C34.1893 54.0984 39.4632 53.1067 40.1326 52.5852C40.6499 52.1967 39.6357 50.387 38.6113 49.8553C38.236 49.661 38.0839 49.6406 37.3232 49.7019C36.8465 49.7428 35.9236 49.8042 35.2745 49.8451ZM19.9293 50.3563C19.8684 50.4688 20.3046 50.7857 20.7914 50.98C20.9841 51.0516 21.3999 51.2458 21.7143 51.3992C22.4851 51.7877 25.5075 52.8817 26.0349 52.9738C26.8666 53.1067 26.4913 52.7181 25.0004 51.8797C23.4892 51.0311 22.5156 50.6426 21.3492 50.4176C20.4871 50.2541 20.0104 50.2336 19.9293 50.3563Z" fill="black"/>
<path d="M9.50301 40.4694C9.67543 40.6739 9.56386 40.7864 8.80319 41.1545C7.87011 41.6043 7.50499 42.1053 7.25143 43.3323C7.19058 43.6697 6.85588 43.7208 6.69361 43.4243C6.5009 43.046 6.58204 42.5245 6.96745 41.7679C7.27171 41.1749 7.44413 40.9602 7.80925 40.7353C8.35694 40.3979 9.32045 40.2445 9.50301 40.4694Z" fill="black"/>
<path d="M25.9841 29.7133C27.5866 29.9996 28.1444 30.3779 28.7631 31.6049C29.108 32.3001 29.1485 32.4842 29.1891 33.3021C29.2297 34.1712 29.2195 34.253 28.9051 34.8869C28.5299 35.6537 28.1444 35.9605 27.2316 36.2059C26.3696 36.4308 25.7712 36.4001 24.8178 36.0832C24.0876 35.8378 23.9151 35.7355 23.3776 35.1936C22.5459 34.3348 22.2619 33.7418 22.2822 32.8625C22.3025 31.8196 22.5459 31.1039 23.0632 30.5926C23.763 29.8769 24.9496 29.5191 25.9841 29.7133ZM25.7103 32.934C25.3046 33.343 25.4162 33.8747 25.9639 34.161C26.897 34.6517 27.4852 33.7827 26.7347 33.0261C26.329 32.6171 26.045 32.5864 25.7103 32.934Z" fill="black"/>
<path d="M41.3495 30.7256C42.2217 31.0221 42.9114 31.6662 43.2562 32.5046C43.601 33.3328 43.3779 35.163 42.8607 35.7355C42.5361 36.0934 41.603 36.533 40.8829 36.666C40.2541 36.7784 40.2338 36.7784 39.4326 36.4001C38.5096 35.9605 37.962 35.4186 37.4548 34.4575C37.0187 33.6191 36.9477 33.0363 37.2013 32.433C37.4548 31.8707 38.3169 30.9198 38.7936 30.6949C39.2602 30.4699 40.6598 30.4904 41.3495 30.7256ZM40.6294 33.6088C40.1425 33.9974 40.4062 34.8256 41.0249 34.8256C41.3292 34.8256 41.7856 34.4064 41.7856 34.1303C41.7856 33.9054 41.603 33.6702 41.3292 33.5168C41.0351 33.3532 40.9336 33.3635 40.6294 33.6088Z" fill="black"/>
<path d="M15.4219 48.0766C14.5801 47.504 13.292 46.3078 13.292 46.0931C13.292 45.9192 13.6774 45.9295 14.0324 46.1237C14.4583 46.3589 17.8661 47.4734 18.3733 47.5449C18.6167 47.5858 19.3875 47.7699 20.0873 47.9539C20.7871 48.1482 21.923 48.4242 22.6228 48.5674C23.3227 48.7105 24.1848 48.9048 24.5296 48.9866C24.8846 49.0684 25.6554 49.1808 26.2436 49.2422L29.5703 49.5898C31.3959 49.7432 31.7813 49.8045 32.2884 50.0192C33.5765 50.602 33.9517 51.7472 33.1505 52.6674C32.5318 53.3729 31.903 53.5569 30.6048 53.4138C29.479 53.2808 28.769 53.015 27.3897 52.2277C24.4992 50.5611 23.3227 50.0192 21.7912 49.6409C20.5031 49.3342 19.6207 49.232 18.6065 49.3035C17.6734 49.3649 17.6734 49.3649 16.9229 48.9763C16.5172 48.7616 15.8377 48.3527 15.4219 48.0766Z" fill="white"/>
</g>
<path d="M71.0227 52H75.9432V44.4545H80.0795C85.4318 44.4545 88.5455 41.2614 88.5455 36.6136C88.5455 31.9886 85.4886 28.7273 80.2045 28.7273H71.0227V52ZM75.9432 40.5114V32.75H79.2614C82.1023 32.75 83.4773 34.2955 83.4773 36.6136C83.4773 38.9205 82.1023 40.5114 79.2841 40.5114H75.9432ZM98.6839 52.3409C103.002 52.3409 105.911 50.2386 106.593 47L102.116 46.7045C101.627 48.0341 100.377 48.7273 98.7634 48.7273C96.343 48.7273 94.8089 47.125 94.8089 44.5227V44.5114H106.695V43.1818C106.695 37.25 103.104 34.3182 98.4907 34.3182C93.3543 34.3182 90.0248 37.9659 90.0248 43.3523C90.0248 48.8864 93.3089 52.3409 98.6839 52.3409ZM94.8089 41.5114C94.9111 39.5227 96.4225 37.9318 98.5702 37.9318C100.673 37.9318 102.127 39.4318 102.138 41.5114H94.8089ZM109.214 58.5455H114.055V49.2045H114.203C114.873 50.6591 116.339 52.2841 119.158 52.2841C123.135 52.2841 126.237 49.1364 126.237 43.2955C126.237 37.2955 122.998 34.3182 119.169 34.3182C116.248 34.3182 114.851 36.0568 114.203 37.4773H113.987V34.5455H109.214V58.5455ZM113.953 43.2727C113.953 40.1591 115.271 38.1705 117.623 38.1705C120.021 38.1705 121.294 40.25 121.294 43.2727C121.294 46.3182 119.998 48.4318 117.623 48.4318C115.294 48.4318 113.953 46.3864 113.953 43.2727ZM136.779 52.3409C141.097 52.3409 144.006 50.2386 144.688 47L140.211 46.7045C139.722 48.0341 138.472 48.7273 136.858 48.7273C134.438 48.7273 132.904 47.125 132.904 44.5227V44.5114H144.79V43.1818C144.79 37.25 141.199 34.3182 136.586 34.3182C131.449 34.3182 128.12 37.9659 128.12 43.3523C128.12 48.8864 131.404 52.3409 136.779 52.3409ZM132.904 41.5114C133.006 39.5227 134.518 37.9318 136.665 37.9318C138.768 37.9318 140.222 39.4318 140.233 41.5114H132.904ZM153.741 52.2841C156.559 52.2841 158.025 50.6591 158.696 49.2045H158.9V52H163.673V28.7273H158.843V37.4773H158.696C158.048 36.0568 156.65 34.3182 153.73 34.3182C149.9 34.3182 146.662 37.2955 146.662 43.2955C146.662 49.1364 149.764 52.2841 153.741 52.2841ZM155.275 48.4318C152.9 48.4318 151.605 46.3182 151.605 43.2727C151.605 40.25 152.878 38.1705 155.275 38.1705C157.628 38.1705 158.946 40.1591 158.946 43.2727C158.946 46.3864 157.605 48.4318 155.275 48.4318ZM171.99 52.3295C174.57 52.3295 176.24 51.2045 177.093 49.5795H177.229V52H181.82V40.2273C181.82 36.0682 178.297 34.3182 174.411 34.3182C170.229 34.3182 167.479 36.3182 166.809 39.5L171.286 39.8636C171.615 38.7045 172.649 37.8523 174.388 37.8523C176.036 37.8523 176.979 38.6818 176.979 40.1136V40.1818C176.979 41.3068 175.786 41.4545 172.752 41.75C169.297 42.0682 166.195 43.2273 166.195 47.125C166.195 50.5795 168.661 52.3295 171.99 52.3295ZM173.377 48.9886C171.888 48.9886 170.82 48.2955 170.82 46.9659C170.82 45.6023 171.945 44.9318 173.649 44.6932C174.706 44.5455 176.434 44.2955 177.013 43.9091V45.7614C177.013 47.5909 175.502 48.9886 173.377 48.9886ZM192.822 52.3409C198.117 52.3409 201.413 48.7159 201.413 43.3409C201.413 37.9318 198.117 34.3182 192.822 34.3182C187.526 34.3182 184.231 37.9318 184.231 43.3409C184.231 48.7159 187.526 52.3409 192.822 52.3409ZM192.845 48.5909C190.401 48.5909 189.151 46.3523 189.151 43.3068C189.151 40.2614 190.401 38.0114 192.845 38.0114C195.242 38.0114 196.492 40.2614 196.492 43.3068C196.492 46.3523 195.242 48.5909 192.845 48.5909Z" fill="black"/>
<defs>
<clipPath id="clip0">
<rect width="46.8571" height="41" fill="white" transform="matrix(-1 0 0 1 46.8572 20)"/>
</clipPath>
</defs>
</svg>
