<svg width="19" height="12" viewBox="0 0 19 12" fill="none" xmlns="http://www.w3.org/2000/svg">
<path fill-rule="evenodd" clip-rule="evenodd" d="M6.78088 0.968875C6.85072 1.03854 6.90614 1.12131 6.94395 1.21243C6.98176 1.30354 7.00122 1.40122 7.00122 1.49988C7.00122 1.59853 6.98176 1.69621 6.94395 1.78733C6.90614 1.87844 6.85072 1.96121 6.78088 2.03088L2.81038 5.99988L6.78088 9.96888C6.85061 10.0386 6.90592 10.1214 6.94366 10.2125C6.9814 10.3036 7.00082 10.4013 7.00082 10.4999C7.00082 10.5985 6.9814 10.6961 6.94366 10.7873C6.90592 10.8784 6.85061 10.9611 6.78088 11.0309C6.71114 11.1006 6.62836 11.1559 6.53725 11.1937C6.44614 11.2314 6.34849 11.2508 6.24988 11.2508C6.15126 11.2508 6.05361 11.2314 5.9625 11.1937C5.87139 11.1559 5.78861 11.1006 5.71888 11.0309L1.21888 6.53088C1.14903 6.46121 1.09362 6.37844 1.05581 6.28733C1.018 6.19621 0.998535 6.09853 0.998535 5.99988C0.998535 5.90123 1.018 5.80354 1.05581 5.71243C1.09362 5.62131 1.14903 5.53854 1.21888 5.46888L5.71888 0.968875C5.78854 0.899031 5.87131 0.843616 5.96243 0.805806C6.05354 0.767997 6.15123 0.748535 6.24988 0.748535C6.34853 0.748535 6.44621 0.767997 6.53733 0.805806C6.62844 0.843616 6.71121 0.899031 6.78088 0.968875Z" fill="white"/>
<path fill-rule="evenodd" clip-rule="evenodd" d="M1.75012 6.00012C1.75012 5.80121 1.82914 5.61044 1.96979 5.46979C2.11044 5.32914 2.30121 5.25012 2.50012 5.25012H18.2501C18.449 5.25012 18.6398 5.32914 18.7805 5.46979C18.9211 5.61044 19.0001 5.80121 19.0001 6.00012C19.0001 6.19903 18.9211 6.3898 18.7805 6.53045C18.6398 6.67111 18.449 6.75012 18.2501 6.75012H2.50012C2.30121 6.75012 2.11044 6.67111 1.96979 6.53045C1.82914 6.3898 1.75012 6.19903 1.75012 6.00012Z" fill="white"/>
</svg>
