<svg width="19" height="12" viewBox="0 0 19 12" fill="none" xmlns="http://www.w3.org/2000/svg">
<path fill-rule="evenodd" clip-rule="evenodd" d="M12.2191 0.968875C12.1493 1.03854 12.0939 1.12131 12.0561 1.21243C12.0182 1.30354 11.9988 1.40122 11.9988 1.49988C11.9988 1.59853 12.0182 1.69621 12.0561 1.78733C12.0939 1.87844 12.1493 1.96121 12.2191 2.03088L16.1896 5.99988L12.2191 9.96888C12.1494 10.0386 12.0941 10.1214 12.0563 10.2125C12.0186 10.3036 11.9992 10.4013 11.9992 10.4999C11.9992 10.5985 12.0186 10.6961 12.0563 10.7873C12.0941 10.8784 12.1494 10.9611 12.2191 11.0309C12.2889 11.1006 12.3716 11.1559 12.4627 11.1937C12.5539 11.2314 12.6515 11.2508 12.7501 11.2508C12.8487 11.2508 12.9464 11.2314 13.0375 11.1937C13.1286 11.1559 13.2114 11.1006 13.2811 11.0309L17.7811 6.53088C17.851 6.46121 17.9064 6.37844 17.9442 6.28733C17.982 6.19621 18.0015 6.09853 18.0015 5.99988C18.0015 5.90123 17.982 5.80354 17.9442 5.71243C17.9064 5.62131 17.851 5.53854 17.7811 5.46888L13.2811 0.968875C13.2115 0.899031 13.1287 0.843616 13.0376 0.805806C12.9465 0.767997 12.8488 0.748535 12.7501 0.748535C12.6515 0.748535 12.5538 0.767997 12.4627 0.805806C12.3716 0.843616 12.2888 0.899031 12.2191 0.968875Z" fill="white"/>
<path fill-rule="evenodd" clip-rule="evenodd" d="M17.2499 6.00012C17.2499 5.80121 17.1709 5.61044 17.0302 5.46979C16.8896 5.32914 16.6988 5.25012 16.4999 5.25012H0.749878C0.550966 5.25012 0.360199 5.32914 0.219547 5.46979C0.0788956 5.61044 -0.00012207 5.80121 -0.00012207 6.00012C-0.00012207 6.19903 0.0788956 6.3898 0.219547 6.53045C0.360199 6.67111 0.550966 6.75012 0.749878 6.75012H16.4999C16.6988 6.75012 16.8896 6.67111 17.0302 6.53045C17.1709 6.3898 17.2499 6.19903 17.2499 6.00012Z" fill="white"/>
</svg>
