<svg width="98" height="60" viewBox="0 0 98 60" fill="none" xmlns="http://www.w3.org/2000/svg">
<circle cx="30" cy="30" r="30" fill="#C4DEDC"/>
<g clip-path="url(#clip0)">
<path d="M29.927 37.959L20.104 32.162L29.921 46.001L39.749 32.162L29.921 37.959H29.927ZM30.073 14L20.254 30.297L30.073 36.104L39.896 30.303L30.073 14Z" fill="black"/>
</g>
<circle cx="68" cy="30" r="30" fill="#D7C4DE"/>
<path d="M67.044 42.5455H69.3906L69.4105 40.2486C73.7159 39.9205 76.2116 37.6335 76.2216 34.1832C76.2116 30.7926 73.6562 28.9929 70.1165 28.1974L69.5298 28.0582L69.5696 23.0866C70.892 23.3949 71.6974 24.2401 71.8168 25.4929H75.9432C75.8935 22.2017 73.4375 19.8452 69.6094 19.4276L69.6293 17.0909H67.2827L67.2628 19.4077C63.375 19.7855 60.6307 22.1321 60.6506 25.5227C60.6406 28.5256 62.7585 30.2457 66.1989 31.071L67.1534 31.3097L67.1037 36.5696C65.483 36.2614 64.3892 35.267 64.2798 33.6065H60.1136C60.2131 37.6236 62.848 39.8707 67.0639 40.2386L67.044 42.5455ZM69.4503 36.5696L69.4901 31.9261C71.0312 32.4134 71.8665 33.0398 71.8764 34.1733C71.8665 35.3764 70.9517 36.2713 69.4503 36.5696ZM67.1832 27.4517C65.9403 27.0241 65.0455 26.3778 65.0653 25.2344C65.0653 24.1705 65.821 23.3452 67.223 23.0568L67.1832 27.4517Z" fill="#0D0D0D"/>
<defs>
<clipPath id="clip0">
<rect width="32" height="32" fill="white" transform="translate(14 14)"/>
</clipPath>
</defs>
</svg>
